<?xml version="1.0" standalone="no"?>
<!DOCTYPE svg PUBLIC "-//W3C//DTD SVG 20010904//EN"
 "http://www.w3.org/TR/2001/REC-SVG-20010904/DTD/svg10.dtd">
<svg version="1.0" xmlns="http://www.w3.org/2000/svg"
 width="150.000000pt" height="150.000000pt" viewBox="0 0 150.000000 150.000000"
 preserveAspectRatio="xMidYMid meet">
<metadata>
Created by potrace 1.14, written by Peter Selinger 2001-2017
</metadata>
<g transform="translate(0.000000,150.000000) scale(0.100000,-0.100000)"
fill="#000000" stroke="none">
<path d="M312 1269 c-26 -10 -45 -36 -36 -50 4 -7 3 -9 -4 -5 -11 7 -28 -51
-18 -61 3 -4 1 -11 -4 -18 -5 -6 -11 -21 -13 -33 -2 -12 -6 -25 -10 -28 -12
-12 -8 -26 6 -18 9 6 9 5 0 -7 -7 -9 -15 -26 -17 -40 -3 -13 -5 -24 -6 -24 -4
0 -13 -54 -14 -82 -1 -17 -4 -29 -8 -27 -5 3 -15 -37 -23 -96 -1 -8 -4 -22 -7
-30 -3 -8 -10 -30 -16 -47 -8 -25 -7 -33 1 -33 8 0 7 -3 -2 -9 -8 -6 -11 -16
-6 -31 5 -14 3 -20 -3 -16 -12 7 -27 -48 -17 -64 3 -5 1 -10 -5 -10 -6 0 -8
-4 -5 -10 3 -5 3 -16 -2 -22 -9 -15 -13 -32 -17 -68 -2 -14 -6 -32 -9 -40 -10
-28 -25 -105 -25 -127 -1 -48 0 -48 586 -48 524 0 551 1 571 19 11 10 18 22
16 26 -3 5 0 10 6 12 5 2 12 15 14 28 2 14 6 36 10 50 3 14 9 39 12 55 8 45
11 60 13 60 4 0 13 52 14 77 1 14 5 24 10 20 5 -3 6 9 3 27 -4 18 -3 30 2 26
11 -6 25 50 16 65 -3 5 -2 10 2 10 5 0 10 11 11 26 1 14 6 33 11 43 7 12 6 22
-2 31 -9 10 -9 11 1 6 7 -5 13 0 14 11 1 18 4 31 8 46 1 4 3 15 5 25 1 9 5 24
9 33 4 9 8 29 10 45 2 16 5 29 6 29 2 0 9 30 15 65 2 14 4 25 5 25 3 0 13 51
14 73 1 12 4 22 9 22 13 0 8 61 -7 75 -7 8 -16 11 -20 8 -3 -4 -6 -2 -6 3 0
10 -1070 13 -1098 3z"/>
</g>
</svg>
